# xmcd
#
# Track frame offsets: 
#        150
#        24799
#        49855
#        77477
#        101567
#        116074
#        143722
#        172957
#        198659
#        221184
#        240890
#        259417
#        279667
#        299439
#
# Disc length: 4261 seconds
#
# Revision: 2
# Processed by: cddbd v1.5.2PL0 Copyright (c) Steve Scherf et al.
# Submitted via: ExactAudioCopy v0.95b4
#
DISCID=cb10a30e
DTITLE=Brian Doerksen - Live In Europe
DYEAR=1900
DGENRE=Contemporary Christian
TTITLE0=Hope of the nations
TTITLE1=Come, now is the time to worship
TTITLE2=You are everything (Everything I need)
TTITLE3=When you shepherd me
TTITLE4=Sinfonia from Cantata No. 12 by J.S. Bach
TTITLE5=Psalm 13 (How long O Lord)
TTITLE6=Faithful one
TTITLE7=Fortress 144
TTITLE8=Refiner's fire
TTITLE9=Lifted
TTITLE10=Hallelujah (Your love is amazing)
TTITLE11=Today (As for me and my house)
TTITLE12=Your name is holy
TTITLE13=Stay (Orphan's Song)
EXTD=
EXTT0=
EXTT1=
EXTT2=
EXTT3=
EXTT4=
EXTT5=
EXTT6=
EXTT7=
EXTT8=
EXTT9=
EXTT10=
EXTT11=
EXTT12=
EXTT13=
PLAYORDER=
